# xmcd
#
# Track frame offsets:
#	150
#	12485
#	26402
#	41568
#	53532
#	65092
#	77258
#	90438
#	103078
#	118567
#	130812
#	141785
#	152395
#	161923
#	174880
#	188703
#
# Disc length: 2699 seconds
#
# Revision: 0
# Processed by: cddbd v1.5.2PL0 Copyright (c) Steve Scherf et al.
# Submitted via: audiograbber 1.83.01
#
DISCID=bf0a8910
DTITLE=Patsy Cline - Vol 3 CCB033
DYEAR=1900
DGENRE=Country
TTITLE0=San Antonio Rose
TTITLE1=She's Got You
TTITLE2=So Wrong
TTITLE3=South of the Border
TTITLE4=Stop Look and Listen
TTITLE5=Stop the World
TTITLE6=Sweet Deams
TTITLE7=The Heart You Break May Be Your Own
TTITLE8=The Wayward Wind
TTITLE9=There He Goes
TTITLE10=Three Cigarettes In An Ashtray
TTITLE11=True Love
TTITLE12=Walkin After Midnight
TTITLE13=Whe I Get Thru With You
TTITLE14=Yes I Understand
TTITLE15=You Took Him Off My Hands
EXTD=Capitol Karaoke CCB033
EXTT0=
EXTT1=
EXTT2=
EXTT3=
EXTT4=
EXTT5=
EXTT6=
EXTT7=
EXTT8=
EXTT9=
EXTT10=
EXTT11=
EXTT12=
EXTT13=
EXTT14=
EXTT15=
PLAYORDER=
